<svg width="258" height="56" viewBox="0 0 258 56" fill="none" xmlns="http://www.w3.org/2000/svg">
<rect width="258" height="56" fill="white"/>
<path d="M17 35.5V21.1H20.08V35.5H17ZM22.0781 35.5V21.1H28.9181C29.9848 21.1 30.8981 21.2867 31.6581 21.66C32.4315 22.0333 33.0248 22.5533 33.4381 23.22C33.8648 23.8867 34.0781 24.6667 34.0781 25.56C34.0781 26.4533 33.8648 27.24 33.4381 27.92C33.0115 28.6 32.4115 29.1333 31.6381 29.52C30.8781 29.8933 29.9715 30.08 28.9181 30.08H24.5181V27.72H28.7581C29.4648 27.72 30.0115 27.5267 30.3981 27.14C30.7981 26.74 30.9981 26.22 30.9981 25.58C30.9981 24.94 30.7981 24.4267 30.3981 24.04C30.0115 23.6533 29.4648 23.46 28.7581 23.46H25.1581V35.5H22.0781ZM35.5156 35.5V21.1H38.5956V35.5H35.5156ZM36.9556 35.5V33.14H46.2356V35.5H36.9556ZM36.9556 29.3V26.98H45.5356V29.3H36.9556ZM36.9556 23.46V21.1H45.9956V23.46H36.9556ZM54.3083 35.7C53.2683 35.7 52.3083 35.52 51.4283 35.16C50.5483 34.7867 49.7816 34.2667 49.1283 33.6C48.4883 32.9333 47.9883 32.1467 47.6283 31.24C47.2683 30.32 47.0883 29.32 47.0883 28.24C47.0883 27.16 47.2616 26.1733 47.6083 25.28C47.9683 24.3867 48.4683 23.6133 49.1083 22.96C49.7616 22.2933 50.5283 21.7867 51.4083 21.44C52.2883 21.08 53.2549 20.9 54.3083 20.9C55.4949 20.9 56.5616 21.1333 57.5083 21.6C58.4683 22.0533 59.2483 22.7 59.8483 23.54C60.4616 24.3667 60.8349 25.34 60.9683 26.46H57.9683C57.7949 25.4333 57.3749 24.66 56.7083 24.14C56.0416 23.6067 55.2483 23.34 54.3283 23.34C53.5149 23.34 52.7949 23.5333 52.1683 23.92C51.5549 24.3067 51.0749 24.8667 50.7283 25.6C50.3816 26.32 50.2083 27.1933 50.2083 28.22C50.2083 29.26 50.3816 30.16 50.7283 30.92C51.0883 31.6667 51.5816 32.2467 52.2083 32.66C52.8349 33.06 53.5549 33.26 54.3683 33.26C55.2349 33.26 56.0016 33 56.6683 32.48C57.3349 31.96 57.7683 31.1867 57.9683 30.16H61.0083C60.8349 31.28 60.4416 32.26 59.8283 33.1C59.2149 33.9267 58.4349 34.5667 57.4883 35.02C56.5416 35.4733 55.4816 35.7 54.3083 35.7Z" fill="#0063DC"/>
<path d="M67.2122 35.5V21.1H68.8522V35.5H67.2122ZM68.0522 35.5V34.06H76.8522V35.5H68.0522ZM68.0522 28.72V27.28H76.1322V28.72H68.0522ZM68.0522 22.54V21.1H76.6922V22.54H68.0522ZM79.8461 35.5V25.3H81.3461V27.7H81.4461V35.5H79.8461ZM87.1461 35.5V28.82C87.1461 28.0467 86.9528 27.4667 86.5661 27.08C86.1794 26.6933 85.6061 26.5 84.8461 26.5C84.1794 26.5 83.5861 26.6467 83.0661 26.94C82.5594 27.2333 82.1594 27.64 81.8661 28.16C81.5861 28.68 81.4461 29.2867 81.4461 29.98L81.1861 27.56C81.5328 26.8 82.0594 26.2 82.7661 25.76C83.4861 25.32 84.2994 25.1 85.2061 25.1C86.2728 25.1 87.1261 25.4067 87.7661 26.02C88.4194 26.62 88.7461 27.4133 88.7461 28.4V35.5H87.1461ZM95.9988 35.7C95.0254 35.7 94.1654 35.4733 93.4188 35.02C92.6721 34.5533 92.0854 33.92 91.6588 33.12C91.2321 32.32 91.0188 31.4 91.0188 30.36C91.0188 29.32 91.2254 28.4067 91.6388 27.62C92.0654 26.82 92.6588 26.2 93.4188 25.76C94.1788 25.32 95.0521 25.1 96.0388 25.1C96.9854 25.1 97.8054 25.3067 98.4988 25.72C99.2054 26.1333 99.7454 26.7133 100.119 27.46C100.505 28.2067 100.699 29.0867 100.699 30.1C100.699 30.2333 100.692 30.36 100.679 30.48C100.679 30.6 100.665 30.7333 100.639 30.88H92.2188V29.54H99.6588L99.1388 30.28C99.1388 29.0533 98.8654 28.1133 98.3188 27.46C97.7854 26.7933 97.0254 26.46 96.0388 26.46C95.0254 26.46 94.2054 26.8133 93.5788 27.52C92.9654 28.2133 92.6588 29.1533 92.6588 30.34C92.6588 31.5533 92.9654 32.5267 93.5788 33.26C94.2054 33.98 95.0388 34.34 96.0788 34.34C96.7321 34.34 97.3054 34.2 97.7988 33.92C98.2921 33.6267 98.6521 33.2133 98.8788 32.68H100.399C100.065 33.6133 99.5054 34.3533 98.7188 34.9C97.9454 35.4333 97.0388 35.7 95.9988 35.7ZM103.108 35.5V25.3H104.608V27.9H104.708V35.5H103.108ZM104.708 30.18L104.448 27.76C104.688 26.8933 105.114 26.2333 105.728 25.78C106.341 25.3267 107.048 25.1 107.848 25.1C108.181 25.1 108.408 25.1267 108.528 25.18V26.72C108.461 26.6933 108.368 26.68 108.248 26.68C108.128 26.6667 107.981 26.66 107.808 26.66C106.794 26.66 106.021 26.9667 105.488 27.58C104.968 28.18 104.708 29.0467 104.708 30.18ZM114.336 39.8C113.122 39.8 112.109 39.5133 111.296 38.94C110.496 38.38 110.009 37.6333 109.836 36.7H111.356C111.502 37.2333 111.829 37.6533 112.336 37.96C112.856 38.28 113.556 38.44 114.436 38.44C115.476 38.44 116.262 38.1533 116.796 37.58C117.329 37.02 117.596 36.1933 117.596 35.1V32.92L117.796 32.96C117.569 33.7333 117.116 34.3533 116.436 34.82C115.756 35.2733 114.949 35.5 114.016 35.5C113.122 35.5 112.336 35.2867 111.656 34.86C110.976 34.42 110.449 33.8133 110.076 33.04C109.702 32.2667 109.516 31.3667 109.516 30.34C109.516 29.3 109.709 28.3867 110.096 27.6C110.482 26.8133 111.022 26.2067 111.716 25.78C112.422 25.34 113.242 25.12 114.176 25.12C115.136 25.12 115.936 25.3533 116.576 25.82C117.229 26.2867 117.662 26.9533 117.876 27.82L117.696 27.84V25.3H119.196V35.1C119.196 36.5533 118.762 37.7 117.896 38.54C117.029 39.38 115.842 39.8 114.336 39.8ZM114.416 34.12C115.416 34.12 116.209 33.7733 116.796 33.08C117.382 32.3867 117.676 31.4467 117.676 30.26C117.676 29.1 117.382 28.1867 116.796 27.52C116.209 26.84 115.416 26.5 114.416 26.5C113.402 26.5 112.602 26.84 112.016 27.52C111.442 28.2 111.156 29.1333 111.156 30.32C111.156 31.48 111.449 32.4067 112.036 33.1C112.622 33.78 113.416 34.12 114.416 34.12ZM123.285 39.6L125.565 34.3L125.925 33.74L129.265 25.3H130.905L124.985 39.6H123.285ZM125.745 35.6L121.165 25.3H122.925L126.865 34.52L125.745 35.6ZM136.997 35.5V21.1H138.637V35.5H136.997ZM138.457 28.02L145.937 21.1H148.237L140.597 28.02H138.457ZM146.257 35.5L138.417 28.02H140.597L148.637 35.5H146.257ZM156.497 35.5C156.443 35.2733 156.403 35.0133 156.377 34.72C156.363 34.4267 156.357 34.0533 156.357 33.6H156.257V28.72C156.257 27.9467 156.077 27.38 155.717 27.02C155.37 26.6467 154.803 26.46 154.017 26.46C153.243 26.46 152.623 26.62 152.157 26.94C151.703 27.2467 151.45 27.6867 151.397 28.26H149.857C149.923 27.2733 150.337 26.5 151.097 25.94C151.857 25.38 152.85 25.1 154.077 25.1C155.343 25.1 156.283 25.4 156.897 26C157.51 26.6 157.817 27.5 157.817 28.7V33.6C157.817 33.8933 157.837 34.2 157.877 34.52C157.917 34.8267 157.97 35.1533 158.037 35.5H156.497ZM152.997 35.7C151.943 35.7 151.103 35.4467 150.477 34.94C149.863 34.42 149.557 33.7133 149.557 32.82C149.557 31.9267 149.863 31.2333 150.477 30.74C151.09 30.2467 151.983 29.9 153.157 29.7L156.717 29.1V30.42L153.397 30.94C152.65 31.06 152.083 31.26 151.697 31.54C151.31 31.82 151.117 32.2267 151.117 32.76C151.117 33.28 151.29 33.6733 151.637 33.94C151.997 34.2067 152.523 34.34 153.217 34.34C154.11 34.34 154.837 34.14 155.397 33.74C155.97 33.3267 156.257 32.7933 156.257 32.14L156.517 33.56C156.303 34.24 155.883 34.7667 155.257 35.14C154.643 35.5133 153.89 35.7 152.997 35.7ZM159.99 35.5V34.34L166.19 25.92L166.79 26.66H160.19V25.3H167.71V26.46L161.51 34.88L160.91 34.14H167.91V35.5H159.99ZM176.419 35.5C176.365 35.2733 176.325 35.0133 176.299 34.72C176.285 34.4267 176.279 34.0533 176.279 33.6H176.179V28.72C176.179 27.9467 175.999 27.38 175.639 27.02C175.292 26.6467 174.725 26.46 173.939 26.46C173.165 26.46 172.545 26.62 172.079 26.94C171.625 27.2467 171.372 27.6867 171.319 28.26H169.779C169.845 27.2733 170.259 26.5 171.019 25.94C171.779 25.38 172.772 25.1 173.999 25.1C175.265 25.1 176.205 25.4 176.819 26C177.432 26.6 177.739 27.5 177.739 28.7V33.6C177.739 33.8933 177.759 34.2 177.799 34.52C177.839 34.8267 177.892 35.1533 177.959 35.5H176.419ZM172.919 35.7C171.865 35.7 171.025 35.4467 170.399 34.94C169.785 34.42 169.479 33.7133 169.479 32.82C169.479 31.9267 169.785 31.2333 170.399 30.74C171.012 30.2467 171.905 29.9 173.079 29.7L176.639 29.1V30.42L173.319 30.94C172.572 31.06 172.005 31.26 171.619 31.54C171.232 31.82 171.039 32.2267 171.039 32.76C171.039 33.28 171.212 33.6733 171.559 33.94C171.919 34.2067 172.445 34.34 173.139 34.34C174.032 34.34 174.759 34.14 175.319 33.74C175.892 33.3267 176.179 32.7933 176.179 32.14L176.439 33.56C176.225 34.24 175.805 34.7667 175.179 35.14C174.565 35.5133 173.812 35.7 172.919 35.7ZM180.823 35.5V20.7H182.423V35.5H180.823ZM187.483 35.5L182.063 30.2L187.283 25.3H189.483L183.623 30.66L183.723 29.72L189.683 35.5H187.483ZM191.526 35.5V21.1H193.126V35.5H191.526ZM198.826 35.5V28.82C198.826 28.0467 198.632 27.4667 198.246 27.08C197.859 26.6933 197.286 26.5 196.526 26.5C195.859 26.5 195.266 26.6467 194.746 26.94C194.239 27.2333 193.839 27.64 193.546 28.16C193.266 28.68 193.126 29.2867 193.126 29.98L192.866 27.56C193.212 26.8 193.739 26.2 194.446 25.76C195.166 25.32 195.979 25.1 196.886 25.1C197.952 25.1 198.806 25.4067 199.446 26.02C200.099 26.62 200.426 27.4133 200.426 28.4V35.5H198.826ZM206.919 35.7C205.666 35.7 204.666 35.4133 203.919 34.84C203.173 34.2533 202.746 33.4267 202.639 32.36H204.179C204.273 33.0133 204.559 33.5133 205.039 33.86C205.519 34.2067 206.159 34.38 206.959 34.38C207.666 34.38 208.219 34.2467 208.619 33.98C209.019 33.7133 209.219 33.3333 209.219 32.84C209.219 32.4933 209.106 32.1933 208.879 31.94C208.653 31.6733 208.199 31.4533 207.519 31.28L205.879 30.86C204.946 30.62 204.246 30.2533 203.779 29.76C203.313 29.2533 203.079 28.6533 203.079 27.96C203.079 27.08 203.406 26.3867 204.059 25.88C204.713 25.36 205.599 25.1 206.719 25.1C207.826 25.1 208.726 25.3667 209.419 25.9C210.113 26.4333 210.506 27.1733 210.599 28.12H209.059C208.966 27.5733 208.713 27.1533 208.299 26.86C207.886 26.5667 207.339 26.42 206.659 26.42C206.006 26.42 205.499 26.5467 205.139 26.8C204.779 27.04 204.599 27.3867 204.599 27.84C204.599 28.1867 204.726 28.4867 204.979 28.74C205.246 28.9933 205.686 29.2067 206.299 29.38L207.899 29.82C208.846 30.0733 209.559 30.46 210.039 30.98C210.519 31.5 210.759 32.1267 210.759 32.86C210.759 33.7533 210.419 34.4533 209.739 34.96C209.059 35.4533 208.119 35.7 206.919 35.7ZM216.993 35.68C215.859 35.68 215.033 35.4267 214.513 34.92C214.006 34.4 213.753 33.6533 213.753 32.68V22.92L215.353 22.32V32.66C215.353 33.2333 215.499 33.6533 215.793 33.92C216.086 34.1867 216.566 34.32 217.233 34.32C217.499 34.32 217.726 34.3067 217.913 34.28C218.113 34.24 218.273 34.1933 218.393 34.14V35.5C218.259 35.5533 218.066 35.5933 217.813 35.62C217.573 35.66 217.299 35.68 216.993 35.68ZM211.653 26.66V25.3H218.393V26.66H211.653ZM226.712 35.5C226.658 35.2733 226.618 35.0133 226.592 34.72C226.578 34.4267 226.572 34.0533 226.572 33.6H226.472V28.72C226.472 27.9467 226.292 27.38 225.932 27.02C225.585 26.6467 225.018 26.46 224.232 26.46C223.458 26.46 222.838 26.62 222.372 26.94C221.918 27.2467 221.665 27.6867 221.612 28.26H220.072C220.138 27.2733 220.552 26.5 221.312 25.94C222.072 25.38 223.065 25.1 224.292 25.1C225.558 25.1 226.498 25.4 227.112 26C227.725 26.6 228.032 27.5 228.032 28.7V33.6C228.032 33.8933 228.052 34.2 228.092 34.52C228.132 34.8267 228.185 35.1533 228.252 35.5H226.712ZM223.212 35.7C222.158 35.7 221.318 35.4467 220.692 34.94C220.078 34.42 219.772 33.7133 219.772 32.82C219.772 31.9267 220.078 31.2333 220.692 30.74C221.305 30.2467 222.198 29.9 223.372 29.7L226.932 29.1V30.42L223.612 30.94C222.865 31.06 222.298 31.26 221.912 31.54C221.525 31.82 221.332 32.2267 221.332 32.76C221.332 33.28 221.505 33.6733 221.852 33.94C222.212 34.2067 222.738 34.34 223.432 34.34C224.325 34.34 225.052 34.14 225.612 33.74C226.185 33.3267 226.472 32.7933 226.472 32.14L226.732 33.56C226.518 34.24 226.098 34.7667 225.472 35.14C224.858 35.5133 224.105 35.7 223.212 35.7ZM231.116 35.5V25.3H232.616V27.7H232.716V35.5H231.116ZM238.416 35.5V28.82C238.416 28.0467 238.222 27.4667 237.836 27.08C237.449 26.6933 236.876 26.5 236.116 26.5C235.449 26.5 234.856 26.6467 234.336 26.94C233.829 27.2333 233.429 27.64 233.136 28.16C232.856 28.68 232.716 29.2867 232.716 29.98L232.456 27.56C232.802 26.8 233.329 26.2 234.036 25.76C234.756 25.32 235.569 25.1 236.476 25.1C237.542 25.1 238.396 25.4067 239.036 26.02C239.689 26.62 240.016 27.4133 240.016 28.4V35.5H238.416Z" fill="black"/>
</svg>
