<svg width="358" height="31" viewBox="0 0 358 31" fill="none" xmlns="http://www.w3.org/2000/svg">
<path d="M0.6 24V0.959999H5.528V24H0.6ZM8.725 24V0.959999H19.669C21.3757 0.959999 22.837 1.25867 24.053 1.856C25.2903 2.45333 26.2397 3.28533 26.901 4.352C27.5837 5.41867 27.925 6.66667 27.925 8.096C27.925 9.52533 27.5837 10.784 26.901 11.872C26.2183 12.96 25.2583 13.8133 24.021 14.432C22.805 15.0293 21.3543 15.328 19.669 15.328H12.629V11.552H19.413C20.5437 11.552 21.4183 11.2427 22.037 10.624C22.677 9.984 22.997 9.152 22.997 8.128C22.997 7.104 22.677 6.28267 22.037 5.664C21.4183 5.04533 20.5437 4.736 19.413 4.736H13.653V24H8.725ZM30.225 24V0.959999H35.153V24H30.225ZM32.529 24V20.224H47.377V24H32.529ZM32.529 14.08V10.368H46.257V14.08H32.529ZM32.529 4.736V0.959999H46.993V4.736H32.529ZM60.2933 24.32C58.6293 24.32 57.0933 24.032 55.6853 23.456C54.2773 22.8587 53.0506 22.0267 52.0052 20.96C50.9813 19.8933 50.1813 18.6347 49.6053 17.184C49.0293 15.712 48.7413 14.112 48.7413 12.384C48.7413 10.656 49.0186 9.07733 49.5733 7.648C50.1493 6.21867 50.9493 4.98133 51.9733 3.936C53.0186 2.86933 54.2453 2.05867 55.6533 1.504C57.0613 0.927999 58.6079 0.639999 60.2933 0.639999C62.1919 0.639999 63.8986 1.01333 65.4132 1.76C66.9493 2.48533 68.1973 3.52 69.1573 4.864C70.1386 6.18667 70.7359 7.744 70.9493 9.536H66.1493C65.8719 7.89333 65.1999 6.656 64.1333 5.824C63.0666 4.97067 61.7973 4.544 60.3253 4.544C59.0239 4.544 57.8719 4.85333 56.8693 5.472C55.8879 6.09067 55.1199 6.98667 54.5653 8.16C54.0106 9.312 53.7333 10.7093 53.7333 12.352C53.7333 14.016 54.0106 15.456 54.5653 16.672C55.1413 17.8667 55.9306 18.7947 56.9333 19.456C57.9359 20.096 59.0879 20.416 60.3893 20.416C61.7759 20.416 63.0026 20 64.0693 19.168C65.1359 18.336 65.8293 17.0987 66.1493 15.456H71.0133C70.7359 17.248 70.1066 18.816 69.1253 20.16C68.1439 21.4827 66.8959 22.5067 65.3813 23.232C63.8666 23.9573 62.1706 24.32 60.2933 24.32Z" fill="white"/>
<path d="M80.9395 24V0.959999H83.5635V24H80.9395ZM82.2835 24V21.696H96.3635V24H82.2835ZM82.2835 13.152V10.848H95.2115V13.152H82.2835ZM82.2835 3.264V0.959999H96.1075V3.264H82.2835ZM101.154 24V7.68H103.554V11.52H103.714V24H101.154ZM112.834 24V13.312C112.834 12.0747 112.524 11.1467 111.906 10.528C111.287 9.90933 110.37 9.6 109.154 9.6C108.087 9.6 107.138 9.83467 106.306 10.304C105.495 10.7733 104.855 11.424 104.386 12.256C103.938 13.088 103.714 14.0587 103.714 15.168L103.298 11.296C103.852 10.08 104.695 9.12 105.826 8.416C106.978 7.712 108.279 7.36 109.73 7.36C111.436 7.36 112.802 7.85067 113.826 8.832C114.871 9.792 115.394 11.0613 115.394 12.64V24H112.834ZM126.998 24.32C125.441 24.32 124.065 23.9573 122.87 23.232C121.675 22.4853 120.737 21.472 120.054 20.192C119.371 18.912 119.03 17.44 119.03 15.776C119.03 14.112 119.361 12.6507 120.022 11.392C120.705 10.112 121.654 9.12 122.87 8.416C124.086 7.712 125.483 7.36 127.062 7.36C128.577 7.36 129.889 7.69067 130.998 8.352C132.129 9.01333 132.993 9.94133 133.59 11.136C134.209 12.3307 134.518 13.7387 134.518 15.36C134.518 15.5733 134.507 15.776 134.486 15.968C134.486 16.16 134.465 16.3733 134.422 16.608H120.95V14.464H132.854L132.022 15.648C132.022 13.6853 131.585 12.1813 130.71 11.136C129.857 10.0693 128.641 9.536 127.062 9.536C125.441 9.536 124.129 10.1013 123.126 11.232C122.145 12.3413 121.654 13.8453 121.654 15.744C121.654 17.6853 122.145 19.2427 123.126 20.416C124.129 21.568 125.462 22.144 127.126 22.144C128.171 22.144 129.089 21.92 129.878 21.472C130.667 21.0027 131.243 20.3413 131.606 19.488H134.038C133.505 20.9813 132.609 22.1653 131.35 23.04C130.113 23.8933 128.662 24.32 126.998 24.32ZM138.373 24V7.68H140.773V11.84H140.933V24H138.373ZM140.933 15.488L140.516 11.616C140.901 10.2293 141.583 9.17333 142.565 8.448C143.546 7.72267 144.677 7.36 145.957 7.36C146.49 7.36 146.853 7.40267 147.045 7.488V9.952C146.938 9.90933 146.789 9.888 146.597 9.888C146.405 9.86667 146.17 9.856 145.893 9.856C144.271 9.856 143.034 10.3467 142.181 11.328C141.349 12.288 140.933 13.6747 140.933 15.488ZM156.337 30.88C154.396 30.88 152.775 30.4213 151.473 29.504C150.193 28.608 149.415 27.4133 149.137 25.92H151.569C151.804 26.7733 152.327 27.4453 153.137 27.936C153.969 28.448 155.089 28.704 156.497 28.704C158.161 28.704 159.42 28.2453 160.273 27.328C161.127 26.432 161.553 25.1093 161.553 23.36V19.872L161.873 19.936C161.511 21.1733 160.785 22.1653 159.697 22.912C158.609 23.6373 157.319 24 155.825 24C154.396 24 153.137 23.6587 152.049 22.976C150.961 22.272 150.119 21.3013 149.521 20.064C148.924 18.8267 148.625 17.3867 148.625 15.744C148.625 14.08 148.935 12.6187 149.553 11.36C150.172 10.1013 151.036 9.13067 152.145 8.448C153.276 7.744 154.588 7.392 156.081 7.392C157.617 7.392 158.897 7.76533 159.921 8.512C160.967 9.25867 161.66 10.3253 162.001 11.712L161.713 11.744V7.68H164.113V23.36C164.113 25.6853 163.42 27.52 162.033 28.864C160.647 30.208 158.748 30.88 156.337 30.88ZM156.465 21.792C158.065 21.792 159.335 21.2373 160.273 20.128C161.212 19.0187 161.681 17.5147 161.681 15.616C161.681 13.76 161.212 12.2987 160.273 11.232C159.335 10.144 158.065 9.6 156.465 9.6C154.844 9.6 153.564 10.144 152.625 11.232C151.708 12.32 151.249 13.8133 151.249 15.712C151.249 17.568 151.719 19.0507 152.657 20.16C153.596 21.248 154.865 21.792 156.465 21.792ZM170.656 30.56L174.304 22.08L174.88 21.184L180.224 7.68H182.847L173.376 30.56H170.656ZM174.592 24.16L167.264 7.68H170.08L176.384 22.432L174.592 24.16ZM192.596 24V0.959999H195.22V24H192.596ZM194.932 12.032L206.9 0.959999H210.58L198.356 12.032H194.932ZM207.412 24L194.868 12.032H198.356L211.22 24H207.412ZM223.795 24C223.709 23.6373 223.645 23.2213 223.603 22.752C223.581 22.2827 223.571 21.6853 223.571 20.96H223.411V13.152C223.411 11.9147 223.123 11.008 222.547 10.432C221.992 9.83467 221.085 9.536 219.827 9.536C218.589 9.536 217.597 9.792 216.851 10.304C216.125 10.7947 215.72 11.4987 215.635 12.416H213.171C213.277 10.8373 213.939 9.6 215.155 8.704C216.371 7.808 217.96 7.36 219.923 7.36C221.949 7.36 223.453 7.84 224.435 8.8C225.416 9.76 225.907 11.2 225.907 13.12V20.96C225.907 21.4293 225.939 21.92 226.003 22.432C226.067 22.9227 226.152 23.4453 226.259 24H223.795ZM218.195 24.32C216.509 24.32 215.165 23.9147 214.163 23.104C213.181 22.272 212.691 21.1413 212.691 19.712C212.691 18.2827 213.181 17.1733 214.163 16.384C215.144 15.5947 216.573 15.04 218.451 14.72L224.147 13.76V15.872L218.835 16.704C217.64 16.896 216.733 17.216 216.115 17.664C215.496 18.112 215.187 18.7627 215.187 19.616C215.187 20.448 215.464 21.0773 216.019 21.504C216.595 21.9307 217.437 22.144 218.547 22.144C219.976 22.144 221.139 21.824 222.035 21.184C222.952 20.5227 223.411 19.6693 223.411 18.624L223.827 20.896C223.485 21.984 222.813 22.8267 221.811 23.424C220.829 24.0213 219.624 24.32 218.195 24.32ZM229.384 24V22.144L239.304 8.672L240.264 9.856H229.704V7.68H241.736V9.536L231.816 23.008L230.856 21.824H242.056V24H229.384ZM255.67 24C255.584 23.6373 255.52 23.2213 255.478 22.752C255.456 22.2827 255.446 21.6853 255.446 20.96H255.286V13.152C255.286 11.9147 254.998 11.008 254.422 10.432C253.867 9.83467 252.96 9.536 251.702 9.536C250.464 9.536 249.472 9.792 248.726 10.304C248 10.7947 247.595 11.4987 247.51 12.416H245.046C245.152 10.8373 245.814 9.6 247.03 8.704C248.246 7.808 249.835 7.36 251.798 7.36C253.824 7.36 255.328 7.84 256.31 8.8C257.291 9.76 257.782 11.2 257.782 13.12V20.96C257.782 21.4293 257.814 21.92 257.878 22.432C257.942 22.9227 258.027 23.4453 258.134 24H255.67ZM250.07 24.32C248.384 24.32 247.04 23.9147 246.038 23.104C245.056 22.272 244.566 21.1413 244.566 19.712C244.566 18.2827 245.056 17.1733 246.038 16.384C247.019 15.5947 248.448 15.04 250.326 14.72L256.022 13.76V15.872L250.71 16.704C249.515 16.896 248.608 17.216 247.99 17.664C247.371 18.112 247.062 18.7627 247.062 19.616C247.062 20.448 247.339 21.0773 247.894 21.504C248.47 21.9307 249.312 22.144 250.422 22.144C251.851 22.144 253.014 21.824 253.91 21.184C254.827 20.5227 255.286 19.6693 255.286 18.624L255.702 20.896C255.36 21.984 254.688 22.8267 253.686 23.424C252.704 24.0213 251.499 24.32 250.07 24.32ZM262.716 24V0.32H265.276V24H262.716ZM273.372 24L264.7 15.52L273.052 7.68H276.572L267.196 16.256L267.356 14.752L276.892 24H273.372ZM279.841 24V0.959999H282.401V24H279.841ZM291.521 24V13.312C291.521 12.0747 291.212 11.1467 290.593 10.528C289.975 9.90933 289.057 9.6 287.841 9.6C286.775 9.6 285.825 9.83467 284.993 10.304C284.183 10.7733 283.543 11.424 283.073 12.256C282.625 13.088 282.401 14.0587 282.401 15.168L281.985 11.296C282.54 10.08 283.383 9.12 284.513 8.416C285.665 7.712 286.967 7.36 288.417 7.36C290.124 7.36 291.489 7.85067 292.513 8.832C293.559 9.792 294.081 11.0613 294.081 12.64V24H291.521ZM304.471 24.32C302.466 24.32 300.866 23.8613 299.671 22.944C298.476 22.0053 297.794 20.6827 297.623 18.976H300.087C300.236 20.0213 300.695 20.8213 301.463 21.376C302.231 21.9307 303.255 22.208 304.535 22.208C305.666 22.208 306.551 21.9947 307.191 21.568C307.831 21.1413 308.151 20.5333 308.151 19.744C308.151 19.1893 307.97 18.7093 307.607 18.304C307.244 17.8773 306.519 17.5253 305.431 17.248L302.807 16.576C301.314 16.192 300.194 15.6053 299.447 14.816C298.7 14.0053 298.327 13.0453 298.327 11.936C298.327 10.528 298.85 9.41867 299.895 8.608C300.94 7.776 302.359 7.36 304.151 7.36C305.922 7.36 307.362 7.78667 308.471 8.64C309.58 9.49333 310.21 10.6773 310.359 12.192H307.895C307.746 11.3173 307.34 10.6453 306.679 10.176C306.018 9.70667 305.143 9.472 304.055 9.472C303.01 9.472 302.199 9.67467 301.623 10.08C301.047 10.464 300.759 11.0187 300.759 11.744C300.759 12.2987 300.962 12.7787 301.367 13.184C301.794 13.5893 302.498 13.9307 303.479 14.208L306.039 14.912C307.554 15.3173 308.695 15.936 309.463 16.768C310.231 17.6 310.615 18.6027 310.615 19.776C310.615 21.2053 310.071 22.3253 308.983 23.136C307.895 23.9253 306.391 24.32 304.471 24.32ZM320.588 24.288C318.775 24.288 317.452 23.8827 316.62 23.072C315.809 22.24 315.404 21.0453 315.404 19.488V3.872L317.964 2.912V19.456C317.964 20.3733 318.199 21.0453 318.668 21.472C319.137 21.8987 319.905 22.112 320.972 22.112C321.399 22.112 321.761 22.0907 322.06 22.048C322.38 21.984 322.636 21.9093 322.828 21.824V24C322.615 24.0853 322.305 24.1493 321.9 24.192C321.516 24.256 321.079 24.288 320.588 24.288ZM312.044 9.856V7.68H322.828V9.856H312.044ZM336.139 24C336.053 23.6373 335.989 23.2213 335.947 22.752C335.925 22.2827 335.915 21.6853 335.915 20.96H335.755V13.152C335.755 11.9147 335.467 11.008 334.891 10.432C334.336 9.83467 333.429 9.536 332.171 9.536C330.933 9.536 329.941 9.792 329.195 10.304C328.469 10.7947 328.064 11.4987 327.979 12.416H325.515C325.621 10.8373 326.283 9.6 327.499 8.704C328.715 7.808 330.304 7.36 332.267 7.36C334.293 7.36 335.797 7.84 336.779 8.8C337.76 9.76 338.251 11.2 338.251 13.12V20.96C338.251 21.4293 338.283 21.92 338.347 22.432C338.411 22.9227 338.496 23.4453 338.603 24H336.139ZM330.539 24.32C328.853 24.32 327.509 23.9147 326.507 23.104C325.525 22.272 325.035 21.1413 325.035 19.712C325.035 18.2827 325.525 17.1733 326.507 16.384C327.488 15.5947 328.917 15.04 330.795 14.72L336.491 13.76V15.872L331.179 16.704C329.984 16.896 329.077 17.216 328.459 17.664C327.84 18.112 327.531 18.7627 327.531 19.616C327.531 20.448 327.808 21.0773 328.363 21.504C328.939 21.9307 329.781 22.144 330.891 22.144C332.32 22.144 333.483 21.824 334.379 21.184C335.296 20.5227 335.755 19.6693 335.755 18.624L336.171 20.896C335.829 21.984 335.157 22.8267 334.155 23.424C333.173 24.0213 331.968 24.32 330.539 24.32ZM343.185 24V7.68H345.585V11.52H345.745V24H343.185ZM354.865 24V13.312C354.865 12.0747 354.556 11.1467 353.937 10.528C353.318 9.90933 352.401 9.6 351.185 9.6C350.118 9.6 349.169 9.83467 348.337 10.304C347.526 10.7733 346.886 11.424 346.417 12.256C345.969 13.088 345.745 14.0587 345.745 15.168L345.329 11.296C345.884 10.08 346.726 9.12 347.857 8.416C349.009 7.712 350.31 7.36 351.761 7.36C353.468 7.36 354.833 7.85067 355.857 8.832C356.902 9.792 357.425 11.0613 357.425 12.64V24H354.865Z" fill="#DCE1E1"/>
</svg>
